<?xml version="1.0" encoding="UTF-8" standalone="no"?>
<svg
   version="1.1"
   width="800px"
   height="800px"
   viewBox="0,0,256,256"
   id="svg12"
   sodipodi:docname="org.gnome.Firme.svg"
   inkscape:version="1.4.2 (ebf0e940d0, 2025-05-08)"
   xmlns:inkscape="http://www.inkscape.org/namespaces/inkscape"
   xmlns:sodipodi="http://sodipodi.sourceforge.net/DTD/sodipodi-0.dtd"
   xmlns="http://www.w3.org/2000/svg"
   xmlns:svg="http://www.w3.org/2000/svg">
  <defs
     id="defs12" />
  <sodipodi:namedview
     id="namedview12"
     pagecolor="#ffffff"
     bordercolor="#000000"
     borderopacity="0.25"
     inkscape:showpageshadow="2"
     inkscape:pageopacity="0.0"
     inkscape:pagecheckerboard="0"
     inkscape:deskcolor="#d1d1d1"
     inkscape:zoom="0.6956163"
     inkscape:cx="460.02373"
     inkscape:cy="345.73658"
     inkscape:window-width="1920"
     inkscape:window-height="1019"
     inkscape:window-x="0"
     inkscape:window-y="0"
     inkscape:window-maximized="1"
     inkscape:current-layer="svg12" />
  <path
     style="fill:#ffffff;stroke:none;stroke-width:1.28"
     d="M 216.53567,68.626467 138.45372,188.11189 167.42359,207.03932 245.50493,87.558768 Z"
     id="path16" />
  <path
     style="fill:#ffffff;stroke-width:1.28;stroke:none"
     d="M 10.097338,14.959449 V 241.03895 L 25.059226,255.9984 H 188.58308 l 14.96067,-14.95945 0.002,-193.653036 L 156.15844,0 H 25.059226 Z"
     id="path15" />
  <g
     fill="#2e3192"
     fill-rule="nonzero"
     stroke="none"
     stroke-width="1"
     stroke-linecap="butt"
     stroke-linejoin="miter"
     stroke-miterlimit="10"
     stroke-dasharray=""
     stroke-dashoffset="0"
     font-family="none"
     font-weight="none"
     font-size="none"
     text-anchor="none"
     style="mix-blend-mode: normal"
     id="g12">
    <g
       transform="translate(0.00003,0) scale(0.60952,0.60952)"
       id="g11">
      <g
         id="g10">
        <g
           id="g9">
          <g
             id="g8">
            <path
               d="M252.877,92.823h53.791l0.005,62.757l27.271,-42.343v-35.494c0,-2.168 -0.863,-4.247 -2.396,-5.787l-69.564,-69.561c-1.533,-1.532 -3.613,-2.395 -5.785,-2.395h-215.086c-13.534,0 -24.547,11.008 -24.547,24.543v370.914c0,13.534 11.012,24.543 24.547,24.543h268.283c13.533,0 24.545,-11.009 24.545,-24.543v-105.307l-27.264,41.721l0.004,60.854h-262.841v-365.451h198.906v55.417c0,5.599 4.535,10.132 10.131,10.132z"
               id="path1" />
            <path
               d="M364.398,195.123l-11.271,-7.364c-1.84,-1.201 -4.303,-0.686 -5.506,1.154l-60.688,92.866l-11.67,-7.625l60.688,-92.867c1.203,-1.841 0.687,-4.304 -1.153,-5.506l-11.271,-7.365c-1.84,-1.202 -4.305,-0.686 -5.506,1.154l-90.869,139.053c-0.386,0.591 -0.607,1.274 -0.643,1.979l-2.375,48.258c-0.069,1.409 0.614,2.754 1.797,3.523c1.183,0.773 2.688,0.86 3.949,0.231l43.243,-21.553c0.634,-0.313 1.17,-0.793 1.558,-1.385l90.867,-139.052c1.206,-1.834 0.688,-4.298 -1.15,-5.501z"
               id="path2" />
            <path
               d="M401.631,138.145l-40.869,-26.708c-1.838,-1.201 -4.304,-0.685 -5.506,1.154l-27.563,42.179c-1.201,1.84 -0.686,4.306 1.154,5.508l40.869,26.706c1.838,1.202 4.305,0.686 5.506,-1.154l27.562,-42.178c1.204,-1.84 0.687,-4.305 -1.153,-5.507z"
               id="path3" />
            <path
               d="M83.563,87.462h78c5.523,0 10,-4.478 10,-10c0,-5.522 -4.477,-10 -10,-10h-78c-5.523,0 -10,4.478 -10,10c0,5.522 4.479,10 10,10z"
               id="path4" />
            <path
               d="M231.563,127.462c0,-5.522 -4.479,-10 -10,-10h-138c-5.523,0 -10,4.478 -10,10c0,5.522 4.477,10 10,10h138c5.523,0 10,-4.478 10,-10z"
               id="path5" />
            <path
               d="M83.563,187.462h78c5.523,0 10,-4.478 10,-10c0,-5.522 -4.477,-10 -10,-10h-78c-5.523,0 -10,4.478 -10,10c0,5.522 4.479,10 10,10z"
               id="path6" />
            <path
               d="M83.563,237.462h78c5.523,0 10,-4.478 10,-10c0,-5.521 -4.477,-10 -10,-10h-78c-5.523,0 -10,4.479 -10,10c0,5.522 4.479,10 10,10z"
               id="path7" />
            <path
               d="M87.796,366.694c-1.947,2.516 1.565,6.082 3.536,3.533c6.213,-8.026 11.344,-16.671 15.629,-25.795c2.674,1.679 6.185,1.343 9.065,0.205c4.151,-1.637 7.67,-4.796 11.021,-7.655c1.981,-1.69 4.287,-4.481 7.029,-4.748c2.094,-0.201 4.922,1.485 7.015,1.844c5.469,0.932 11.857,-0.651 17.137,-1.956c5.011,-1.237 10.879,-3.194 13.828,-7.731c1.763,-2.712 -2.568,-5.216 -4.317,-2.521c-2.361,3.632 -8.126,4.764 -12.022,5.726c-4.573,1.131 -9.879,2.246 -14.592,1.442c-3.552,-0.604 -6.425,-2.752 -10.077,-1.125c-4.892,2.18 -8.629,6.761 -12.949,9.854c-1.933,1.384 -4.142,2.714 -6.56,2.901c-0.995,0.077 -1.806,-0.288 -2.48,-0.896c0.532,-1.234 1.06,-2.474 1.563,-3.725c4.876,-12.104 7.081,-24.396 9.344,-37.146c1.15,-6.479 3.063,-16.688 -6.223,-17.311c-8.205,-0.548 -15.296,11.287 -17.918,17.524c-2.345,5.578 -2.606,12.058 -2.427,18.014c0.111,3.712 1.447,7.566 2.432,11.404c-7.874,1.263 -14.814,9.216 -13.598,17.1c1.197,7.758 10.898,3.752 14.521,0.881c3.667,-2.905 4.854,-6.534 4.893,-10.448c0.731,1.205 1.342,2.65 1.974,4.002c-4.225,9.477 -9.522,18.485 -15.824,26.627zM96.56,338.393c-0.74,3.298 -4.913,6.554 -8.199,6.858c-2.585,0.24 -1.008,-4.377 -0.497,-5.409c1.604,-3.242 5.578,-5.358 8.919,-6.27c0.156,1.627 0.131,3.239 -0.223,4.821zM100.736,328.712c-0.851,-3.976 -2.032,-7.969 -2.338,-11.583c-0.592,-6.975 0.647,-14.284 4.106,-20.384c2.161,-3.812 6.566,-9.654 11.239,-10.154c4.173,-0.444 1.628,9.705 1.267,11.744c-1.117,6.294 -1.914,12.541 -3.471,18.763c-1.446,5.778 -3.278,11.5 -5.469,17.095c-1.165,-2.899 -2.682,-4.755 -5.334,-5.481z"
               id="path8" />
          </g>
        </g>
      </g>
    </g>
  </g>
</svg>
